<svg width="129" height="50" viewBox="0 0 129 50" fill="none" xmlns="http://www.w3.org/2000/svg">
<g clip-path="url(#clip0_701_3095)">
<path d="M49.7363 13.4424H57.5054V15.0908H54.4394V25.0612H52.7218V15.0908H49.7363V13.4424Z" fill="white"/>
<path d="M58.7373 19.2679C58.7373 18.4677 58.8871 17.7102 59.1867 16.9954C59.4971 16.2805 59.925 15.6457 60.4707 15.0909C61.0167 14.5361 61.6479 14.104 62.3648 13.7946C63.0817 13.4745 63.8524 13.3145 64.6763 13.3145C65.4895 13.3145 66.2546 13.4745 66.9715 13.7946C67.6888 14.104 68.3252 14.5361 68.8818 15.0909C69.4384 15.6457 69.8716 16.2805 70.182 16.9954C70.4921 17.7102 70.6475 18.4677 70.6475 19.2679C70.6475 20.0895 70.4921 20.8576 70.182 21.5725C69.8716 22.2873 69.4384 22.9168 68.8818 23.4609C68.3361 24.0051 67.6993 24.4319 66.9715 24.7413C66.2546 25.04 65.4895 25.1894 64.6763 25.1894C63.8524 25.1894 63.0817 25.04 62.3648 24.7413C61.6479 24.4425 61.0167 24.0264 60.4707 23.493C59.925 22.9488 59.4971 22.3193 59.1867 21.6045C58.8871 20.879 58.7373 20.1001 58.7373 19.2679ZM60.5031 19.2679C60.5031 19.8654 60.6099 20.4255 60.8241 20.9483C61.0487 21.4605 61.3536 21.9139 61.7389 22.3087C62.1243 22.6928 62.5684 22.9968 63.0712 23.2209C63.5849 23.4343 64.1358 23.541 64.7244 23.541C65.3024 23.541 65.8429 23.4343 66.3457 23.2209C66.8485 22.9968 67.2873 22.6928 67.6621 22.3087C68.0471 21.9139 68.3466 21.4605 68.5608 20.9483C68.7749 20.4255 68.8818 19.8654 68.8818 19.2679C68.8818 18.6704 68.7693 18.1156 68.5446 17.6035C68.3308 17.0807 68.0312 16.6219 67.6459 16.2272C67.2714 15.8324 66.8273 15.523 66.3137 15.2989C65.8105 15.0749 65.2701 14.9629 64.6924 14.9629C64.0933 14.9629 63.542 15.0749 63.0392 15.2989C62.536 15.523 62.092 15.8324 61.7069 16.2272C61.3216 16.6219 61.022 17.0807 60.8079 17.6035C60.6047 18.1263 60.5031 18.6811 60.5031 19.2679Z" fill="white"/>
<path d="M74.7483 20.9162C74.7483 21.407 74.8713 21.8498 75.1175 22.2446C75.3636 22.6393 75.6899 22.9541 76.0964 23.1888C76.5031 23.4235 76.9578 23.5409 77.4609 23.5409C77.9961 23.5409 78.4721 23.4235 78.8895 23.1888C79.3068 22.9541 79.6331 22.6393 79.8687 22.2446C80.1148 21.8498 80.2379 21.407 80.2379 20.9162V13.4424H81.9231V20.9642C81.9231 21.8071 81.7252 22.5486 81.3293 23.1888C80.9334 23.8183 80.3982 24.3091 79.7242 24.6611C79.0498 25.0132 78.2956 25.1893 77.4609 25.1893C76.6477 25.1893 75.904 25.0132 75.2296 24.6611C74.5556 24.3091 74.0205 23.8183 73.6246 23.1888C73.2392 22.5486 73.0469 21.8071 73.0469 20.9642V13.4424H74.7483V20.9162Z" fill="white"/>
<path d="M93.6135 24.1811C93.4423 24.2985 93.1853 24.4425 92.8428 24.6132C92.5112 24.7733 92.1153 24.912 91.6551 25.0293C91.2057 25.1467 90.7082 25.2 90.1625 25.1894C89.2529 25.1787 88.434 25.0187 87.7065 24.7093C86.9896 24.3998 86.3796 23.9784 85.8765 23.4449C85.3737 22.9008 84.983 22.282 84.7049 21.5885C84.4373 20.8843 84.3037 20.1375 84.3037 19.3479C84.3037 18.4731 84.4426 17.6729 84.7211 16.9473C84.9992 16.2112 85.3951 15.571 85.9088 15.0269C86.433 14.4827 87.0431 14.0613 87.7385 13.7626C88.4449 13.4638 89.2153 13.3145 90.05 13.3145C90.7669 13.3145 91.4142 13.4105 91.9922 13.6025C92.5699 13.7946 93.0569 14.0186 93.4528 14.2747L92.7788 15.8751C92.4683 15.6617 92.0833 15.459 91.6231 15.2669C91.1737 15.0642 90.6706 14.9629 90.1143 14.9629C89.5683 14.9629 89.0493 15.0749 88.5571 15.2989C88.0757 15.5123 87.6475 15.8164 87.273 16.2112C86.9091 16.5953 86.6204 17.0487 86.4063 17.5715C86.1922 18.0836 86.0853 18.6438 86.0853 19.2519C86.0853 19.8707 86.1816 20.4415 86.3743 20.9643C86.5667 21.4871 86.8398 21.9406 87.1929 22.3247C87.5568 22.7088 87.9899 23.0075 88.4931 23.2209C88.9959 23.4343 89.563 23.541 90.1945 23.541C90.7936 23.541 91.3179 23.4503 91.7676 23.2689C92.2275 23.0875 92.6023 22.8795 92.891 22.6447L93.6135 24.1811Z" fill="white"/>
<path d="M105.529 13.4424V25.0612H103.811V20.052H97.9041V25.0612H96.1865V13.4424H97.9041V18.4196H103.811V13.4424H105.529Z" fill="white"/>
<path d="M108.805 13.4424H116.461V15.0908H110.522V18.4036H115.803V20.052H110.522V23.4128H116.686V25.0612H108.805V13.4424Z" fill="white"/>
<path d="M119.323 25.0612V13.4424H122.566C123.721 13.4424 124.706 13.6184 125.519 13.9705C126.332 14.3226 126.985 14.7867 127.478 15.3629C127.98 15.939 128.344 16.5792 128.569 17.2833C128.805 17.9875 128.922 18.697 128.922 19.4119C128.922 20.2761 128.767 21.0549 128.457 21.7484C128.146 22.4419 127.724 23.0394 127.189 23.5409C126.653 24.0317 126.038 24.4104 125.343 24.6772C124.647 24.9332 123.909 25.0612 123.128 25.0612H119.323ZM121.041 23.4128H122.807C123.438 23.4128 124.016 23.3222 124.54 23.1408C125.075 22.9594 125.535 22.6927 125.92 22.3406C126.316 21.9885 126.621 21.5564 126.836 21.0443C127.049 20.5321 127.157 19.9453 127.157 19.2838C127.157 18.569 127.034 17.9502 126.787 17.4274C126.552 16.8939 126.236 16.4565 125.84 16.115C125.444 15.763 125 15.5069 124.508 15.3469C124.026 15.1762 123.534 15.0908 123.031 15.0908H121.041V23.4128Z" fill="white"/>
<path d="M53.6859 31.5352C54.8627 31.5352 55.7885 31.7752 56.4625 32.2554C57.1474 32.7355 57.4899 33.4717 57.4899 34.4638C57.4899 35.1039 57.3401 35.6536 57.0405 36.1121C56.7515 36.571 56.3451 36.9286 55.8205 37.1845C55.3068 37.4299 54.6971 37.5687 53.9907 37.6006L53.734 36.6884C54.5579 36.7098 55.2909 36.8539 55.933 37.1207C56.5856 37.3766 57.0993 37.7394 57.4737 38.2088C57.8591 38.6677 58.0517 39.2171 58.0517 39.8572C58.0517 40.444 57.9392 40.9509 57.7146 41.3776C57.5008 41.7937 57.2065 42.1352 56.8317 42.4019C56.4681 42.6579 56.0508 42.85 55.58 42.9779C55.1197 43.0954 54.638 43.1539 54.1352 43.1539H50.5879V31.5352H53.6859ZM53.9907 36.5605C54.5899 36.5605 55.0287 36.3898 55.3068 36.0483C55.5852 35.7069 55.7241 35.3013 55.7241 34.8319C55.7241 34.2559 55.5423 33.8398 55.1784 33.5835C54.8254 33.3171 54.3546 33.1835 53.766 33.1835H52.3055V36.5605H53.9907ZM54.0551 41.5697C54.4724 41.5697 54.8469 41.5108 55.1784 41.3937C55.5209 41.2654 55.7885 41.0789 55.9811 40.8335C56.1844 40.5773 56.286 40.2572 56.286 39.8733C56.286 39.4463 56.1682 39.1157 55.933 38.8809C55.7083 38.6355 55.414 38.4648 55.0501 38.3687C54.6971 38.2621 54.3279 38.2088 53.9426 38.2088H52.3055V41.5697H54.0551Z" fill="white"/>
<path d="M63.2308 39.3292L58.9131 31.5352H61.0319L64.3865 37.8727L63.8728 37.9046L67.1955 31.5352H69.2981L64.9484 39.3292V43.1539H63.2308V39.3292Z" fill="white"/>
<path d="M76.4668 43.1532V31.1504H76.4826L82.6786 39.9045L81.9402 39.7443L88.1039 31.1504H88.1359V43.1532H86.4344V35.0072L86.5469 35.8874L82.2451 41.9529H82.2131L77.831 35.8874L78.12 35.0874V43.1532H76.4668Z" fill="white"/>
<path d="M91.4053 43.1539V31.5352H94.6478C95.8035 31.5352 96.788 31.7112 97.6012 32.0633C98.4145 32.4154 99.0671 32.8795 99.5593 33.4556C100.062 34.0319 100.426 34.672 100.651 35.3759C100.886 36.0802 101.004 36.7898 101.004 37.5046C101.004 38.3687 100.849 39.1477 100.539 39.8411C100.228 40.5348 99.8054 41.1322 99.2706 41.6335C98.7355 42.1243 98.1202 42.5033 97.4247 42.77C96.7289 43.0259 95.9905 43.1539 95.2096 43.1539H91.4053ZM93.1229 41.5056H94.8886C95.5198 41.5056 96.0978 41.4148 96.622 41.2335C97.1572 41.0523 97.6171 40.7855 98.0024 40.4335C98.3983 40.0812 98.7035 39.6493 98.9173 39.1371C99.1314 38.625 99.2383 38.0381 99.2383 37.3766C99.2383 36.6618 99.1153 36.0431 98.8691 35.52C98.6339 34.9868 98.3182 34.5493 97.9222 34.2079C97.5263 33.8559 97.0823 33.5996 96.59 33.4398C96.1083 33.269 95.6161 33.1835 95.1133 33.1835H93.1229V41.5056Z" fill="white"/>
<path d="M109.621 33.7594C109.214 33.5459 108.776 33.3646 108.305 33.215C107.834 33.0656 107.379 32.991 106.94 32.991C106.341 32.991 105.865 33.1298 105.512 33.4071C105.159 33.6739 104.982 34.042 104.982 34.5114C104.982 34.8423 105.1 35.1301 105.335 35.3755C105.571 35.6209 105.876 35.8344 106.25 36.016C106.624 36.1972 107.021 36.3679 107.438 36.5278C107.791 36.6561 108.139 36.8107 108.481 36.992C108.834 37.1627 109.15 37.3762 109.428 37.6321C109.717 37.8883 109.942 38.2084 110.103 38.5926C110.274 38.966 110.359 39.4245 110.359 39.9689C110.359 40.5877 110.204 41.1479 109.894 41.6492C109.594 42.1505 109.155 42.5508 108.578 42.8495C108.01 43.1377 107.32 43.2818 106.507 43.2818C106.015 43.2818 105.533 43.2281 105.062 43.1216C104.602 43.0041 104.163 42.8548 103.746 42.6735C103.339 42.4814 102.97 42.2732 102.639 42.0492L103.409 40.7209C103.666 40.9025 103.96 41.0785 104.292 41.2492C104.623 41.4091 104.966 41.537 105.319 41.6331C105.683 41.7291 106.025 41.7771 106.346 41.7771C106.699 41.7771 107.047 41.7186 107.39 41.6012C107.732 41.4732 108.016 41.2811 108.24 41.0252C108.465 40.7584 108.578 40.4117 108.578 39.9847C108.578 39.6219 108.476 39.3179 108.272 39.0725C108.08 38.8166 107.818 38.5979 107.486 38.4163C107.165 38.235 106.817 38.0748 106.443 37.9364C106.079 37.7975 105.71 37.6429 105.335 37.4722C104.961 37.3015 104.613 37.0989 104.292 36.864C103.971 36.6186 103.709 36.3199 103.505 35.9679C103.313 35.6051 103.216 35.1623 103.216 34.6393C103.216 34.0206 103.361 33.4818 103.65 33.0232C103.949 32.5536 104.362 32.1855 104.886 31.9188C105.41 31.6521 106.015 31.5027 106.699 31.4707C107.481 31.4707 108.16 31.5667 108.738 31.7588C109.316 31.9508 109.83 32.1802 110.279 32.447L109.621 33.7594Z" fill="white"/>
<path d="M6.70214 6.83331C6.82071 6.83337 6.93652 6.79765 7.03434 6.73088C12.3745 3.09755 18.6328 1.1771 25.1328 1.1771C26.702 1.17693 28.2692 1.28999 29.8221 1.51541C29.9769 1.53788 30.1344 1.49812 30.2598 1.40488C30.3853 1.31164 30.4685 1.17254 30.4911 1.01817C30.5138 0.863796 30.474 0.706777 30.3806 0.581622C30.2872 0.456467 30.1477 0.373421 29.9929 0.350737C28.3835 0.117043 26.7592 -0.000174817 25.1328 1.95687e-07C18.3944 1.95687e-07 11.9059 1.99127 6.36888 5.75857C6.26466 5.82949 6.18597 5.93186 6.14434 6.05064C6.10274 6.16943 6.10039 6.29838 6.13767 6.41857C6.17496 6.53877 6.24985 6.6439 6.35146 6.71854C6.45305 6.79318 6.57594 6.83341 6.70214 6.83331Z" fill="white"/>
<path d="M4.04328 14.4842C4.125 14.4842 4.20587 14.4674 4.28069 14.4346C4.35555 14.4019 4.42273 14.354 4.47799 14.294C8.31697 10.1384 13.3261 7.23675 18.8482 5.96971C24.3704 4.7027 30.1477 5.12941 35.4222 7.19389C35.5681 7.25089 35.7304 7.2479 35.8736 7.18563C36.0171 7.12336 36.1299 7.00688 36.1873 6.86178C36.2444 6.71668 36.2418 6.55481 36.1794 6.41175C36.1174 6.26866 36.0006 6.15609 35.8551 6.09872C30.36 3.93751 24.337 3.48764 18.5804 4.80843C12.8237 6.12925 7.60375 9.15869 3.60887 13.4973C3.53127 13.5814 3.47994 13.6863 3.46113 13.799C3.44233 13.9117 3.45681 14.0275 3.5029 14.1321C3.54896 14.2368 3.62457 14.3258 3.72055 14.3883C3.81652 14.4508 3.92867 14.4841 4.04328 14.4842Z" fill="white"/>
<path d="M3.66971 21.315C3.73652 21.3543 3.81039 21.38 3.88716 21.3908C3.96393 21.4015 4.04209 21.3971 4.11715 21.3777C4.19221 21.3583 4.26268 21.3244 4.32457 21.2779C4.38647 21.2313 4.43856 21.1731 4.47785 21.1064C8.76607 13.8449 16.6806 9.33396 25.1328 9.33396C29.4918 9.33005 33.7692 10.5131 37.503 12.7556C37.6373 12.8362 37.7976 12.8603 37.9497 12.8228C38.1015 12.7853 38.2321 12.6892 38.3129 12.5557C38.3941 12.4221 38.4182 12.262 38.3809 12.1106C38.3433 11.9591 38.2473 11.8287 38.1133 11.7479C35.2658 10.0364 32.1063 8.90498 28.8174 8.41913C25.5285 7.93327 22.1756 8.10268 18.9528 8.91748C15.7301 9.73232 12.7014 11.1764 10.0421 13.1661C7.38286 15.1558 5.14582 17.6517 3.46054 20.5093C3.42121 20.5758 3.39541 20.6495 3.38462 20.7261C3.37387 20.8026 3.37832 20.8805 3.39775 20.9553C3.41715 21.0301 3.45117 21.1004 3.49785 21.1621C3.5445 21.2239 3.6029 21.2758 3.66971 21.315Z" fill="white"/>
<path d="M25.1339 12.2364C22.3695 12.233 19.6316 12.7734 17.077 13.8266C14.5224 14.8797 12.2013 16.425 10.2466 18.374C8.29195 20.3229 6.74207 22.6371 5.68575 25.1842C4.62944 27.7312 4.08744 30.461 4.09084 33.217L4.09087 33.2184C4.09087 35.5378 5.01502 37.7624 6.65998 39.4026C8.30498 41.0427 10.5361 41.9641 12.8624 41.9641C15.1888 41.9641 17.4199 41.0427 19.0648 39.4026C20.7098 37.7624 21.634 35.5378 21.634 33.2184L21.634 33.217C21.6339 32.292 22.0022 31.4047 22.658 30.7503C23.3138 30.0958 24.2034 29.7277 25.1312 29.7269C26.0591 29.7261 26.9493 30.0926 27.6062 30.746C28.2632 31.3993 28.633 32.286 28.6345 33.2111C28.6345 33.2131 28.6342 33.2151 28.6342 33.217C28.6342 41.1467 22.6941 47.8559 14.817 48.8233C14.6678 48.8417 14.5314 48.9161 14.4353 49.0312C14.3392 49.1463 14.2908 49.2937 14.2999 49.443C14.309 49.5927 14.375 49.7332 14.4843 49.8358C14.5936 49.9384 14.7382 49.9957 14.8884 49.996C14.9128 49.996 14.9371 49.9944 14.9613 49.9914C19.0611 49.4835 22.8335 47.4993 25.5689 44.4121C28.3043 41.3253 29.8142 37.348 29.8147 33.2289C29.8148 33.2249 29.8153 33.221 29.8153 33.217C29.8153 32.6043 29.6943 31.9973 29.4592 31.4311C29.224 30.8648 28.8793 30.3503 28.4447 29.9169C28.0101 29.4834 27.4941 29.1396 26.9262 28.905C26.3583 28.6704 25.7496 28.5495 25.135 28.5495C24.5202 28.5494 23.9115 28.67 23.3436 28.9045C22.7756 29.139 22.2596 29.4827 21.8249 29.916C21.3902 30.3493 21.0453 30.8638 20.81 31.43C20.5747 31.9962 20.4535 32.6031 20.4534 33.2161L20.4534 33.217C20.4534 37.3904 17.0481 40.7858 12.8624 40.7858C8.67677 40.7858 5.27147 37.3904 5.27147 33.217L5.2714 33.2164C5.27186 22.2969 14.1819 13.4134 25.1339 13.4134C29.7311 13.4151 34.1861 15.0031 37.7424 17.9078C37.8024 17.9569 37.8714 17.9937 37.9456 18.0162C38.0195 18.0387 38.0974 18.0464 38.1746 18.0388C38.2518 18.0313 38.3267 18.0087 38.395 17.9723C38.4636 17.9359 38.524 17.8864 38.5731 17.8267C38.6223 17.767 38.6592 17.6982 38.682 17.6243C38.7044 17.5503 38.712 17.4726 38.7048 17.3957C38.6972 17.3188 38.6744 17.2441 38.6378 17.1759C38.6015 17.1078 38.5517 17.0474 38.492 16.9983C34.7295 13.9118 30.0062 12.228 25.1339 12.2364Z" fill="white"/>
<path d="M37.4055 33.8047C37.5622 33.8047 37.7123 33.7429 37.8228 33.6324C37.9337 33.5222 37.9957 33.3725 37.996 33.2162C37.9964 31.5319 37.6641 29.8639 37.0178 28.3077C36.3715 26.7513 35.4243 25.3372 34.23 24.146C33.0353 22.9548 31.6174 22.0099 30.0566 21.3652C28.4959 20.7205 26.823 20.3887 25.1337 20.3887C23.4443 20.3887 21.7715 20.7205 20.2107 21.3652C18.65 22.0099 17.2319 22.9548 16.0375 24.146C14.8431 25.3372 13.8957 26.7513 13.2495 28.3077C12.6034 29.8639 12.271 31.5319 12.2715 33.2162C12.2715 33.3725 12.3337 33.5222 12.4444 33.6324C12.5551 33.7429 12.7052 33.8047 12.8618 33.8047C13.0183 33.8047 13.1685 33.7429 13.2792 33.6324C13.3899 33.5222 13.452 33.3725 13.452 33.2162C13.452 26.7941 18.6924 21.5692 25.1336 21.5692C31.5749 21.5692 36.8152 26.7941 36.8152 33.2162C36.8152 33.3725 36.8776 33.5222 36.9881 33.6324C37.099 33.7429 37.2491 33.8047 37.4055 33.8047Z" fill="white"/>
<path d="M25.1345 24.4709C23.9826 24.4703 22.8417 24.696 21.7774 25.1353C20.7129 25.5745 19.7457 26.2186 18.9311 27.0307C18.1165 27.8428 17.4704 28.807 17.0298 29.8682C16.5891 30.9294 16.3625 32.0668 16.363 33.2154L16.3629 33.2164C16.3629 34.1414 15.9946 35.0285 15.3389 35.6832C14.6832 36.3374 13.7937 36.7055 12.866 36.7062C11.9383 36.7072 11.0481 36.3407 10.3912 35.6878C9.73426 35.0345 9.36422 34.1483 9.36244 33.2233C9.36244 33.221 9.36273 33.2187 9.36273 33.2164C9.36273 24.5454 16.4377 17.4909 25.1341 17.4909C30.0772 17.4909 34.6389 19.7318 37.6492 23.639C37.7445 23.7628 37.8854 23.8437 38.0405 23.864C38.1959 23.8843 38.3529 23.8423 38.4769 23.7472C38.601 23.6521 38.6822 23.5117 38.7026 23.357C38.7231 23.2022 38.6808 23.0457 38.5855 22.9219C37.0269 20.9037 35.0345 19.2597 32.7548 18.1107C30.1709 16.8123 27.2966 16.1951 24.4057 16.3181C21.5148 16.4411 18.7037 17.3 16.2401 18.8132C13.7765 20.3263 11.7426 22.4433 10.332 24.9622C8.92156 27.4812 8.18148 30.3183 8.18233 33.2032C8.1822 33.2078 8.18164 33.2121 8.18164 33.2164C8.18148 34.4542 8.67451 35.6414 9.55224 36.5167C10.43 37.392 11.6205 37.8841 12.862 37.8841C14.1034 37.8845 15.2941 37.3927 16.1721 36.5177C17.05 35.6427 17.5434 34.4555 17.5435 33.2177L17.5436 33.2164C17.5436 29.0432 20.9489 25.648 25.1345 25.648C29.3202 25.648 32.7255 29.0432 32.7255 33.2164C32.7304 35.7601 32.2414 38.2802 31.2856 40.6384C31.2565 40.7101 31.2418 40.7868 31.2425 40.8641C31.2431 40.9414 31.259 41.018 31.2893 41.0891C31.3195 41.1601 31.3636 41.2249 31.4189 41.2789C31.4742 41.3332 31.5396 41.3759 31.6115 41.4049C31.6834 41.4338 31.7603 41.4486 31.8378 41.448C31.9153 41.4473 31.992 41.4312 32.0634 41.4012C32.1347 41.371 32.1995 41.3269 32.2538 41.272C32.3081 41.2167 32.3511 41.1516 32.3801 41.0799C33.3928 38.5815 33.9111 35.9111 33.9062 33.2164C33.9068 32.0679 33.6802 30.9303 33.2397 29.869C32.7991 28.8076 32.153 27.8433 31.3383 27.031C30.5237 26.2188 29.5565 25.5746 28.492 25.1354C27.4275 24.696 26.2866 24.4703 25.1345 24.4709Z" fill="white"/>
<path d="M12.8622 46.0417C14.5515 46.0427 16.2245 45.7114 17.7854 45.0673C19.3463 44.4233 20.7647 43.4785 21.9592 42.2877C23.1538 41.0966 24.1011 39.6825 24.7472 38.1262C25.3932 36.57 25.7253 34.9019 25.7244 33.2173C25.7244 33.0614 25.6622 32.9117 25.5515 32.8013C25.4408 32.6909 25.2907 32.6289 25.1341 32.6289C24.9775 32.6289 24.8274 32.6909 24.7167 32.8013C24.606 32.9117 24.5438 33.0614 24.5438 33.2173C24.5438 39.6397 19.3034 44.8647 12.8622 44.8647C6.42091 44.8647 1.18059 39.6397 1.18059 33.2173C1.18059 33.0614 1.1184 32.9117 1.0077 32.8013C0.896993 32.6909 0.746851 32.6289 0.590296 32.6289C0.433741 32.6289 0.283595 32.6909 0.172893 32.8013C0.0621919 32.9117 1.92068e-06 33.0614 1.92068e-06 33.2173C-0.000921505 34.9019 0.331138 36.57 0.977194 38.1262C1.62325 39.6825 2.57064 41.0966 3.76519 42.2877C4.95974 43.4785 6.37802 44.4233 7.93895 45.0673C9.49988 45.7114 11.1728 46.0427 12.8622 46.0417Z" fill="white"/>
</g>
<defs>
<clipPath id="clip0_701_3095">
<rect width="129" height="50" fill="white"/>
</clipPath>
</defs>
</svg>
